Coordinates
version=1
nRows=24
nColumns=24
inDegrees=yes

Units are S.I. units (second, meters, Newtons, ...)
Angles are in degrees.

endheader
time	pelvis_tilt	pelvis_list	pelvis_rotation	pelvis_tx	pelvis_ty	pelvis_tz	hip_flexion_r	hip_adduction_r	hip_rotation_r	knee_angle_r	ankle_angle_r	subtalar_angle_r	mtp_angle_r	hip_flexion_l	hip_adduction_l	hip_rotation_l	knee_angle_l	ankle_angle_l	subtalar_angle_l	mtp_angle_l	lumbar_extension	lumbar_bending	lumbar_rotation
      4.25000000	    -18.99518916	     -1.51262290	     -4.13257659	     -1.37045553	     -0.00022981	     -0.24656337	      7.40374847	      8.90587838	     10.65199054	     -2.98027378	      0.75579813	      0.04213461	      4.38691675	     46.11558766	     -0.09298963	      3.66262267	    -49.20668260	     13.97048091	      8.75299838	    -64.75837632	     12.46668709	      0.85954178	      4.93053116
      4.25500000	    -18.95831150	     -1.39652379	     -4.33451212	     -1.36391290	     -0.00035528	     -0.24655611	      6.68576364	      8.72090186	     10.50798126	     -2.57333730	      0.68101573	      0.49786153	      4.56958866	     46.29130537	     -0.11591816	      3.66403096	    -47.49097817	     14.11350221	      8.96003583	    -64.85565529	     12.37592647	      0.85461640	      5.15166746
      4.26000000	    -18.92388360	     -1.27697159	     -4.53956525	     -1.35737123	     -0.00058631	     -0.24655319	      6.00737597	      8.53663483	     10.35573279	     -2.23409460	      0.64385284	      0.96326962	      4.81158693	     46.43187181	     -0.14723757	      3.65473547	    -45.70736402	     14.18831428	      9.15951222	    -64.93362381	     12.28543637	      0.84949932	      5.36867959
      4.26500000	    -18.88624647	     -1.16248406	     -4.74760528	     -1.35082611	     -0.00092576	     -0.24657794	      5.36472297	      8.36226479	     10.16943857	     -1.96700719	      0.64069798	      1.43662317	      5.14273230	     46.52842738	     -0.18543954	      3.65624869	    -43.85949914	     14.22815916	      9.34203908	    -64.99192893	     12.18971472	      0.85534276	      5.59830741
      4.27000000	    -18.88582632	     -1.03691055	     -4.96009603	     -1.34430097	     -0.00139943	     -0.24654835	      4.79240312	      8.18536328	     10.04519930	     -1.75566771	      0.66961341	      1.86312972	      5.46326128	     46.63721731	     -0.24222165	      3.63028654	    -41.95754139	     14.17961752	      9.58270468	    -65.02708689	     12.13343269	      0.84379867	      5.79713127
      4.27500000	    -18.88992911	     -0.91211784	     -5.17741433	     -1.33777532	     -0.00197830	     -0.24653020	      4.26249964	      8.01568356	      9.92500667	     -1.61751684	      0.73365728	      2.25410287	      5.78883123	     46.70980219	     -0.30834502	      3.61230787	    -39.99632304	     14.12159866	      9.84649589	    -65.03781139	     12.07785846	      0.83856289	      6.00154627
      4.28000000	    -18.86959068	     -0.79201275	     -5.40420027	     -1.33123119	     -0.00262497	     -0.24655949	      3.74229044	      7.85062902	      9.76664594	     -1.54675109	      0.82669720	      2.67109228	      6.22314694	     46.71009119	     -0.37913336	      3.60726033	    -37.97540607	     14.07813998	     10.09716283	    -65.01671915	     11.99741513	      0.84890705	      6.24107471
      4.28500000	    -18.84741252	     -0.67034725	     -5.59466340	     -1.32472399	     -0.00337566	     -0.24658677	      3.25963257	      7.68752848	      9.56024594	     -1.53935785	      0.95286460	      3.07529601	      6.92233785	     46.68733516	     -0.44188406	      3.62735039	    -35.91809093	     14.01461576	     10.47940661	    -64.94126386	     11.90588974	      0.83894634	      6.38692004
      4.29000000	    -18.99103234	     -0.52860101	     -5.83299710	     -1.31815576	     -0.00436989	     -0.24653234	      2.95744221	      7.52901117	      9.59912534	     -1.55913237	      1.06608123	      3.21740233	      7.12490309	     46.80874513	     -0.54748424	      3.57616601	    -33.82429537	     13.96242122	     10.84031301	    -64.93377259	     12.01398760	      0.83623026	      6.57743683
      4.29500000	    -18.96063735	     -0.39504113	     -6.08920758	     -1.31168899	     -0.00520191	     -0.24653199	      2.52441474	      7.35944146	      9.52675856	     -1.66197299	      1.21809393	      3.53315289	      7.62801501	     46.69946580	     -0.65401415	      3.56792530	    -31.67507147	     13.94018584	     11.24930359	    -64.87465880	     11.90198422	      0.83399537	      6.85915635
      4.30000000	    -19.08091370	     -0.23700038	     -6.31777675	     -1.30519346	     -0.00627693	     -0.24650003	      2.26457980	      7.18263577	      9.56600368	     -1.79392365	      1.39821981	      3.68346120	      7.94777616	     46.74442500	     -0.75367186	      3.52980266	    -29.51849494	     13.90375483	     11.73625230	    -64.85761048	     11.96774003	      0.80754798	      7.04730072
      4.30500000	    -19.18375664	     -0.08539357	     -6.55452565	     -1.29868336	     -0.00738449	     -0.24647218	      2.01105230	      7.01429371	      9.60126465	     -1.97733823	      1.58144081	      3.82460207	      8.25878559	     46.74336922	     -0.86774093	      3.48813286	    -27.34919287	     13.94168308	     12.26386504	    -64.84311189	     12.01098831	      0.79137322	      7.23897832
      4.31000000	    -19.29194676	      0.05395190	     -6.79352356	     -1.29220820	     -0.00855569	     -0.24644581	      1.79050697	      6.86229665	      9.64668095	     -2.20944091	      1.77369284	      3.94475132	      8.59716077	     46.73876790	     -0.99743871	      3.46187572	    -25.19217961	     14.00725169	     12.82326468	    -64.83890860	     12.04871807	      0.78778270	      7.43936362
      4.31500000	    -19.43559964	      0.18603700	     -7.02773493	     -1.28568253	     -0.00983277	     -0.24642162	      1.61747769	      6.72396677	      9.71083409	     -2.46886013	      1.95698658	      4.01407451	      8.88720317	     46.76202437	     -1.13501434	      3.43542174	    -23.05890378	     14.11829676	     13.39323906	    -64.84531695	     12.13339130	      0.79597424	      7.62090407
      4.32000000	    -19.57739102	      0.30355234	     -7.27458671	     -1.27920863	     -0.01115146	     -0.24637809	      1.46898061	      6.60246811	      9.81649414	     -2.77606352	      2.14901066	      4.07444951	      9.19220392	     46.78268547	     -1.29768620	      3.40471466	    -20.95897181	     14.21155481	     13.97339220	    -64.87202197	     12.19904328	      0.81721267	      7.82037447
      4.32500000	    -19.72183821	      0.41407515	     -7.52848092	     -1.27272836	     -0.01252487	     -0.24632795	      1.33913083	      6.48689345	      9.95948390	     -3.11516749	      2.34119378	      4.12482329	      9.53042266	     46.80334698	     -1.47151780	      3.36060303	    -18.90154543	     14.29286212	     14.53937737	    -64.92086375	     12.26044816	      0.84682157	      8.02522951
      4.33000000	    -19.74160053	      0.54287583	     -7.76491716	     -1.26611998	     -0.01380461	     -0.24627358	      1.06111443	      6.32208195	      9.99203528	     -3.38172310	      2.34002304	      4.16423303	     10.86894359	     46.66920409	     -1.60522050	      3.26444351	    -16.87337416	     14.44019183	     15.09184006	    -65.19311456	     12.20347619	      0.83166792	      8.21237508
      4.33500000	    -19.98248087	      0.64569875	     -8.04323041	     -1.25955899	     -0.01537409	     -0.24618496	      1.06904104	      6.22897205	     10.25629558	     -3.80326296	      2.52982189	      4.13339558	     11.06887814	     46.77309388	     -1.79641608	      3.29797381	    -14.90975588	     14.48274179	     15.45589572	    -65.24136235	     12.37628755	      0.88647328	      8.43073941
      4.34000000	    -20.14583595	      0.75133869	     -8.30471474	     -1.25294077	     -0.01688525	     -0.24607595	      0.99571080	      6.11659662	     10.50390618	     -4.23055757	      2.72614670	      4.16070703	     11.28348183	     46.79687326	     -1.96822295	      3.29457952	    -13.02468123	     14.51066498	     15.80770899	    -65.29270872	     12.46644018	      0.91336490	      8.67701555
      4.34500000	    -20.27140627	      0.90581688	     -8.61422813	     -1.24620793	     -0.01835537	     -0.24594901	      0.91129360	      5.93603597	     10.81136256	     -4.70474552	      2.92669745	      4.25708631	     11.58008132	     46.76158188	     -2.11630635	      3.24818019	    -11.21186881	     14.55566933	     16.00049070	    -65.35208687	     12.53363766	      0.90818178	      8.90836444
      4.35000000	    -20.38051164	      1.06386592	     -8.89925111	     -1.23942255	     -0.01983803	     -0.24583449	      0.82197346	      5.74379990	     11.10612185	     -5.20026333	      3.12638736	      4.37596340	     11.92638221	     46.72264729	     -2.23586932	      3.22778711	     -9.51269781	     14.56952613	     16.11284646	    -65.41736912	     12.58625106	      0.88426860	      9.16210960
      4.35500000	    -20.48101382	      1.22865579	     -9.17139123	     -1.23257445	     -0.02133979	     -0.24572725	      0.74068450	      5.53769778	     11.40845385	     -5.72649880	      3.32018145	      4.51931082	     12.31736375	     46.69494611	     -2.33114807	      3.21427863	     -7.95529643	     14.57156484	     16.14030788	    -65.47990005	     12.63447807	      0.84349531	      9.41208053
      4.36000000	    -20.45184673	      1.42186585	     -9.35661722	     -1.22556453	     -0.02271934	     -0.24583830	      0.51470145	      5.24393014	     11.50552381	     -6.19200446	      3.38975591	      4.77119514	     13.63814269	     46.47485860	     -2.28761399	      3.55975628	     -6.39953932	     14.43006578	     15.67475089	    -65.68137192	     12.55834847	      0.74317723	      9.57187989
      4.36500000	    -20.61762978	      1.57897886	     -9.64358961	     -1.21864682	     -0.02435115	     -0.24567412	      0.54912907	      5.06294572	     11.93419247	     -6.81145449	      3.54708479	      4.83864152	     13.93881800	     46.60365977	     -2.40229794	      3.42180333	     -5.24573511	     14.46786009	     15.73986591	    -65.69816961	     12.68243334	      0.71509067	      9.85994202
